HIERARCHY
ROOT Hips
{
	OFFSET 0.000000 0.000000 0.000000
	CHANNELS 6 Xposition Yposition Zposition Yrotation Xrotation Zrotation
	JOINT Chest
	{
		OFFSET 0.000000 -0.009281 11.569106
		CHANNELS 3 Yrotation Xrotation Zrotation
		JOINT Chest2
		{
			OFFSET -0.000000 0.016865 9.269641
			CHANNELS 3 Yrotation Xrotation Zrotation
			JOINT Chest3
			{
				OFFSET -0.000000 0.000001 8.374491
				CHANNELS 3 Yrotation Xrotation Zrotation
				JOINT Chest4
				{
					OFFSET -0.000000 0.000001 8.374493
					CHANNELS 3 Yrotation Xrotation Zrotation
					JOINT Neck
					{
						OFFSET -0.000000 0.000002 12.152554
						CHANNELS 3 Yrotation Xrotation Zrotation
						JOINT Head
						{
							OFFSET -0.000000 0.040101 7.802319
							CHANNELS 3 Yrotation Xrotation Zrotation
							End Site
							{
								OFFSET -0.000000 0.020947 14.853096
							}
						}
					}
					JOINT RightCollar
					{
						OFFSET 2.894404 0.000001 6.791374
						CHANNELS 3 Yrotation Xrotation Zrotation
						JOINT RightShoulder
						{
							OFFSET 13.574684 0.000001 0.000000
							CHANNELS 3 Yrotation Xrotation Zrotation
							JOINT RightElbow
							{
								OFFSET 23.923903 0.000002 0.000000
								CHANNELS 3 Yrotation Xrotation Zrotation
								JOINT RightWrist
								{
									OFFSET 19.846718 0.012767 0.000000
									CHANNELS 3 Yrotation Xrotation Zrotation
									End Site
									{
										OFFSET 14.973145 0.000001 0.000000
									}
								}
							}
						}
					}
					JOINT LeftCollar
					{
						OFFSET -2.894404 0.000001 6.791374
						CHANNELS 3 Yrotation Xrotation Zrotation
						JOINT LeftShoulder
						{
							OFFSET -13.574684 -0.000001 0.000000
							CHANNELS 3 Yrotation Xrotation Zrotation
							JOINT LeftElbow
							{
								OFFSET -23.923903 -0.000002 0.000000
								CHANNELS 3 Yrotation Xrotation Zrotation
								JOINT LeftWrist
								{
									OFFSET -19.846718 0.012763 0.000000
									CHANNELS 3 Yrotation Xrotation Zrotation
									End Site
									{
										OFFSET -14.973145 -0.000001 0.000000
									}
								}
							}
						}
					}
				}
			}
		}
	}
	JOINT RightHip
	{
		OFFSET 9.469263 0.004643 0.045487
		CHANNELS 3 Yrotation Xrotation Zrotation
		JOINT RightKnee
		{
			OFFSET 0.000000 0.002661 -40.478676
			CHANNELS 3 Yrotation Xrotation Zrotation
			JOINT RightAnkle
			{
				OFFSET 0.000000 0.049106 -35.224068
				CHANNELS 3 Yrotation Xrotation Zrotation
				JOINT RightToe
				{
					OFFSET -0.000001 12.539529 -6.151390
					CHANNELS 3 Yrotation Xrotation Zrotation
					End Site
					{
						OFFSET -0.000001 5.044994 -1.291870
					}
				}
			}
		}
	}
	JOINT LeftHip
	{
		OFFSET -9.469263 0.004641 0.045487
		CHANNELS 3 Yrotation Xrotation Zrotation
		JOINT LeftKnee
		{
			OFFSET 0.000000 0.002661 -40.478676
			CHANNELS 3 Yrotation Xrotation Zrotation
			JOINT LeftAnkle
			{
				OFFSET 0.000000 0.049106 -35.224068
				CHANNELS 3 Yrotation Xrotation Zrotation
				JOINT LeftToe
				{
					OFFSET -0.000001 12.539529 -6.151390
					CHANNELS 3 Yrotation Xrotation Zrotation
					End Site
					{
						OFFSET -0.000001 5.044994 -1.291870
					}
				}
			}
		}
	}
}
MOTION
Frames: 6
Frame Time: 0.016667
46.277100 23.383978 82.993073 -4.172155 1.617404 -117.914610 -1.639765 -3.714913 2.672972 -0.648847 -1.710321 1.237981 -0.648847 -1.710321 1.237983 -0.483136 -1.284063 0.926601 1.466578 -13.718772 -4.405615 1.012004 10.671310 -7.736587 9.624198 5.461235 -1.262135 42.732109 -15.460540 -13.906872 -23.818166 -61.617725 84.100898 -42.585782 39.691773 50.874179 -8.144642 5.922997 -6.386629 -40.276386 -10.830800 19.014082 -3.773093 -65.508167 -59.007466 29.696358 17.221864 -75.295794 -7.687845 2.502078 -8.591791 5.914323 -20.110766 -16.559208 -2.383743 10.120652 -1.687735 0.693566 -0.299103 -0.016834 -1.232798 -2.192288 8.301117 -0.085497 -6.869210 6.203306 0.651880 2.946710 9.989882 -0.137267 1.538919 -0.029121 
46.390343 23.934603 83.036690 -4.140293 1.641824 -117.649148 -1.595342 -3.723889 2.562866 -0.603167 -1.721756 1.188052 -0.603167 -1.721756 1.188054 -0.448996 -1.292498 0.889276 1.440690 -13.699773 -4.420062 0.956396 10.704690 -7.774854 9.553784 5.386792 -1.257880 42.859550 -15.117620 -14.200562 -23.918462 -61.504508 84.093084 -42.451999 39.686541 50.973681 -8.171412 5.637373 -6.515490 -40.177427 -10.841460 18.839284 -3.759027 -65.523808 -59.223143 29.949864 17.038716 -75.118236 -7.868660 2.698496 -7.593786 5.915138 -20.187208 -16.556877 -2.537039 10.203546 -2.683207 0.919063 -0.455525 0.021548 -1.627078 -1.679929 7.530859 0.797217 -7.200780 3.955452 0.624286 2.568050 10.288487 -0.330219 1.424752 -0.042483 
46.250462 24.375277 83.069611 -3.939515 1.672451 -117.340191 -1.532992 -3.655643 2.446810 -0.554225 -1.717808 1.135412 -0.554225 -1.717808 1.135411 -0.412448 -1.289392 0.849937 1.425275 -13.650868 -4.420921 0.924343 10.794566 -7.784297 9.470383 5.143215 -1.291154 42.928914 -14.747635 -14.235450 -23.913653 -61.313884 83.952703 -42.319022 39.627996 51.065353 -8.207197 5.500998 -6.558352 -40.142941 -11.185890 18.676437 -3.835889 -65.480218 -59.280673 30.210985 17.150649 -74.892389 -7.633219 3.147821 -5.505230 5.791227 -19.987425 -16.138740 -3.066165 10.018873 -4.978238 1.252651 -0.627468 0.147908 -1.615892 -1.108716 5.791832 1.457807 -7.198633 1.038184 0.514695 2.020181 10.842270 -0.516628 1.232063 -0.069612 
45.964935 24.755072 83.103302 -3.728471 1.678613 -117.015334 -1.488805 -3.616047 2.300612 -0.514666 -1.700421 1.086946 -0.514666 -1.700422 1.086948 -0.382947 -1.276237 0.813720 1.426973 -13.615531 -4.402363 0.933057 10.860866 -7.749748 9.483951 5.209166 -1.283922 42.863412 -14.652945 -14.333253 -23.885808 -61.164365 83.871608 -42.212178 39.548144 51.131387 -8.201549 5.392503 -6.583814 -40.273978 -11.463479 18.579822 -4.091241 -65.346810 -58.994004 30.344666 17.355673 -74.763872 -7.284552 3.524411 -3.972777 5.472918 -19.675793 -15.440730 -3.851561 9.728330 -6.669201 1.675688 -0.757425 0.195027 -1.309525 -0.565285 3.200966 1.921415 -6.997184 -2.006509 0.319536 1.345146 11.155379 -0.736772 1.046449 -0.085844 
45.763317 25.092354 83.121536 -3.609965 1.615479 -116.658156 -1.455065 -3.637506 2.069432 -0.488587 -1.670672 1.049471 -0.488587 -1.670673 1.049471 -0.363546 -1.253849 0.785713 1.448857 -13.630430 -4.370857 0.987736 10.835458 -7.680929 9.528554 5.533628 -1.310871 42.710775 -14.808465 -14.454613 -23.937008 -61.158149 83.989566 -42.134385 39.429285 51.153838 -8.173227 5.277802 -6.633719 -40.499159 -11.447680 18.699004 -4.258646 -65.222549 -58.714984 30.411752 17.466204 -74.791753 -6.905025 3.727623 -3.880472 4.578438 -19.324263 -14.004059 -3.892625 9.527848 -5.931756 1.527351 -0.884786 0.131964 -0.946270 -0.268700 -0.042305 2.409912 -6.588454 -4.685552 0.050436 0.718394 10.899396 -1.006212 0.876012 -0.100214 
45.529396 25.520878 83.131592 -3.013937 2.021217 -115.870649 -1.638730 -2.988467 1.341044 -0.474263 -1.630343 1.044086 -0.474262 -1.630343 1.044085 -0.352888 -1.223572 0.781745 1.496240 -13.690160 -4.352298 1.087697 10.727715 -7.624961 9.561508 5.718248 -1.332991 42.559998 -14.932373 -14.448131 -24.136301 -61.210578 84.278428 -42.061254 39.330005 51.185335 -8.179929 5.301148 -6.638534 -40.668254 -11.289507 18.976608 -4.162566 -65.220937 -58.712566 30.432557 17.393463 -74.821458 -6.405105 4.200320 -4.625817 2.660047 -18.625632 -10.407677 -2.617633 9.619940 -4.189856 0.542764 -1.204784 0.094460 -0.884357 0.685619 -4.014465 2.954671 -5.897984 -6.855042 -0.162029 -0.198544 10.190466 -1.366521 0.848188 -0.224044 
